<?xml version="1.0" standalone="no"?>
<!DOCTYPE svg PUBLIC "-//W3C//DTD SVG 20010904//EN"
 "http://www.w3.org/TR/2001/REC-SVG-20010904/DTD/svg10.dtd">
<svg version="1.0" xmlns="http://www.w3.org/2000/svg"
 width="130.000000pt" height="130.000000pt" viewBox="0 0 130.000000 130.000000"
 preserveAspectRatio="xMidYMid meet">
<metadata>
Created by potrace 1.14, written by Peter Selinger 2001-2017
</metadata>
<g transform="translate(0.000000,130.000000) scale(0.100000,-0.100000)"
fill="#000000" stroke="none">
<path d="M915 1021 c-3 -6 -13 -9 -23 -9 -34 3 -122 -24 -131 -40 -6 -11 -4
-24 9 -42 18 -25 18 -28 -1 -90 -11 -36 -25 -73 -30 -83 -5 -10 -7 -22 -4 -26
2 -5 -2 -14 -10 -21 -7 -6 -11 -18 -9 -25 3 -8 2 -20 -2 -27 -5 -7 -9 -16 -10
-20 -1 -5 -3 -10 -4 -13 -1 -3 -3 -8 -4 -12 -14 -61 -32 -113 -38 -113 -5 0
-7 -4 -4 -9 9 -15 -16 -75 -41 -96 -13 -11 -23 -28 -23 -37 0 -14 17 -16 140
-16 77 0 143 4 146 9 3 5 10 7 15 4 14 -9 11 9 -6 31 -15 20 -20 56 -8 68 4 3
8 13 10 21 2 8 4 21 6 28 4 17 27 89 34 107 4 8 7 18 7 22 1 3 11 18 23 31 14
17 28 24 42 20 22 -6 23 -30 1 -78 -7 -16 -14 -34 -16 -40 -1 -5 -9 -30 -18
-54 -21 -58 -20 -100 4 -136 11 -16 20 -27 20 -23 0 4 15 1 34 -7 31 -13 49
-13 121 -2 33 6 64 30 79 61 18 37 11 59 -14 46 -25 -13 -30 4 -14 49 7 20 13
44 14 54 0 9 5 17 11 17 6 0 9 7 6 15 -4 8 -2 17 3 20 5 3 9 13 10 23 0 9 3
38 6 65 5 41 2 52 -20 81 -49 65 -165 65 -230 0 -24 -24 -25 -24 -23 -5 1 12
4 21 8 21 4 0 10 17 14 38 5 20 10 44 13 52 17 61 6 130 -19 115 -5 -4 -9 -1
-9 4 0 6 -14 11 -31 11 -17 0 -28 4 -24 10 3 6 4 10 1 10 -3 0 -7 -4 -11 -9z"/>
<path d="M313 813 c-31 -8 -60 -18 -64 -24 -3 -6 -10 -10 -15 -10 -18 1 -92
-52 -105 -75 -7 -13 -16 -24 -21 -24 -4 0 -8 -6 -8 -14 0 -8 -5 -16 -10 -18
-14 -4 -21 -40 -26 -125 -2 -46 0 -73 7 -73 6 0 8 -4 5 -8 -8 -14 65 -83 95
-90 8 -2 23 -6 34 -9 61 -15 185 -7 235 14 8 3 18 5 23 5 4 -1 7 2 7 8 0 5 6
10 13 10 8 0 22 9 32 20 10 11 25 20 33 20 9 0 13 3 9 6 -5 5 10 27 41 60 7 8
10 14 6 14 -3 0 -2 6 4 13 14 17 39 108 36 132 -5 39 -13 67 -25 81 -6 8 -8
14 -3 14 5 0 -3 8 -19 18 -15 10 -24 22 -20 26 5 4 4 6 -2 5 -5 -2 -19 2 -30
8 -49 26 -152 34 -232 16z m103 -88 c8 -8 9 -17 2 -28 -5 -10 -6 -22 -3 -27 3
-6 3 -16 -2 -22 -4 -7 -9 -24 -11 -37 -2 -14 -8 -33 -13 -43 -6 -11 -12 -28
-14 -39 -13 -66 -65 -133 -86 -112 -14 14 -19 53 -7 53 6 0 9 3 6 6 -3 3 1 31
9 62 8 31 16 64 18 72 2 8 10 29 19 45 9 17 16 36 16 43 0 7 7 15 15 18 8 4
13 9 10 13 -7 12 29 9 41 -4z"/>
</g>
</svg>
